<?xml version="1.0" encoding="UTF-8"?>
<!DOCTYPE svg PUBLIC "-//W3C//DTD SVG 1.1//EN" "http://www.w3.org/Graphics/SVG/1.1/DTD/svg11.dtd">
<!-- Creator: CorelDRAW X8 -->
<svg xmlns="http://www.w3.org/2000/svg" xml:space="preserve" width="58.4506mm" height="11.9851mm" version="1.1" style="shape-rendering:geometricPrecision; text-rendering:geometricPrecision; image-rendering:optimizeQuality; fill-rule:evenodd; clip-rule:evenodd"
viewBox="0 0 1421 291"
 xmlns:xlink="http://www.w3.org/1999/xlink">
 <defs>
  <style type="text/css">
   <![CDATA[
    .fil1 {fill:#2AA12E}
    .fil0 {fill:white}
    .fil2 {fill:black;fill-rule:nonzero}
   ]]>
  </style>
 </defs>
 <g id="Layer_x0020_1">
  <metadata id="CorelCorpID_0Corel-Layer"/>
  <g id="_1953211580432">
   <path class="fil0" d="M138 41c59,0 107,48 107,107 0,60 -48,108 -107,108 -60,0 -108,-48 -108,-108 0,-59 48,-107 108,-107z"/>
   <path class="fil1" d="M138 11c-76,0 -138,61 -138,137 0,76 62,138 138,138 76,0 138,-62 138,-138 0,-76 -62,-137 -138,-137zm-30 222l-73 -74 29 -28 44 44 97 -97 29 29 -126 126z"/>
   <path id="TaxTim_x0020_Text_x0020_Only" class="fil2" d="M1322 118c-9,9 -21,28 -34,56 -13,25 -20,38 -22,38 -2,0 -4,-13 -4,-40 0,-29 -3,-47 -9,-55 -8,-9 -15,-13 -26,-13 -26,0 -55,35 -88,106 0,-7 2,-19 6,-35 6,-28 9,-45 9,-51 0,-21 -9,-31 -26,-31 -5,0 -9,1 -12,4 -2,3 -4,7 -4,11 0,19 -1,37 -4,57 -5,24 -6,54 -7,88 0,22 8,33 23,33 11,0 18,-6 19,-18 10,-22 24,-47 42,-75 18,-28 29,-42 34,-42 4,0 5,16 6,48 0,35 4,55 10,61 7,6 13,8 20,8 9,0 16,-4 24,-12 8,-9 17,-24 27,-46 12,-24 19,-40 24,-48 5,-8 9,-12 12,-12 3,0 5,3 6,8 1,6 3,17 4,33 1,34 6,57 12,69 7,11 16,17 28,17 6,0 13,-3 19,-7 7,-5 10,-11 10,-15 0,-6 -3,-10 -9,-12 -7,-4 -11,-10 -14,-21 -2,-10 -5,-26 -7,-46 -2,-26 -6,-44 -11,-55 -6,-11 -15,-17 -28,-17 -10,0 -20,5 -30,14zm-226 -109c-5,-6 -17,-9 -37,-9 -19,0 -45,4 -81,9 -31,5 -63,8 -96,8 -19,0 -31,2 -36,5 -5,4 -8,9 -8,16 0,8 2,13 7,17 5,3 13,4 24,4 4,0 17,0 39,-2 23,-2 35,-3 39,-3 -2,1 -4,24 -9,68 -4,45 -6,78 -6,100 0,17 0,30 1,41 2,10 5,17 11,22 5,4 10,6 14,6 5,0 10,-3 14,-8 3,-6 5,-13 5,-20 0,-2 0,-4 -1,-6 -2,-12 -3,-24 -3,-34 0,-24 1,-56 6,-97 3,-40 6,-63 6,-67 1,-5 2,-8 3,-10 11,-4 31,-7 60,-7 9,0 18,1 24,1 8,1 13,1 16,1 10,0 15,-6 15,-19 0,-5 -2,-11 -7,-16zm-19 46c-9,0 -16,2 -20,7 -5,5 -7,11 -7,18 0,6 3,11 7,16 5,5 10,8 16,8 4,0 10,-3 16,-8 6,-5 9,-13 9,-20 0,-6 -2,-10 -5,-14 -5,-5 -10,-7 -16,-7zm-316 36l-69 0 69 95 -71 95 69 0 37 -54 36 54 70 0 -70 -96 69 -94 -68 0 -36 53 -36 -53zm-91 190l0 -130c0,-22 -8,-39 -22,-50 -16,-10 -40,-15 -72,-15 -14,0 -27,0 -40,2 -13,3 -22,5 -28,7l0 46 5 0c8,-4 18,-8 27,-10 9,-3 18,-4 24,-4 16,0 28,2 36,6 7,4 11,11 11,22l0 1c-17,1 -34,3 -48,5 -15,2 -28,6 -39,11 -10,5 -18,11 -24,20 -6,9 -9,20 -9,35 0,17 6,31 17,43 11,10 25,16 42,16 9,0 16,0 21,-2 6,-1 10,-3 16,-6 6,-2 10,-5 13,-8 3,-3 7,-5 11,-9l0 20 59 0zm-59 -89l0 0 0 40c-5,4 -10,7 -15,9 -6,3 -11,4 -16,4 -10,0 -16,-1 -21,-4 -5,-4 -8,-10 -8,-19 0,-7 2,-11 5,-15 2,-3 7,-6 12,-8 6,-3 12,-4 18,-5 7,0 14,-1 25,-2zm-55 -130l0 -48 -244 0 0 48 77 0 0 225 69 0 0 -225 98 0zm514 74c-4,-2 -10,-3 -18,-3 -7,0 -12,3 -15,7 -4,5 -5,10 -5,17 0,2 -2,13 -5,29 0,5 -1,9 -3,14 -4,23 -7,42 -6,58 1,18 9,27 23,27 6,-1 11,-2 16,-6 4,-4 7,-7 7,-9 0,-1 0,-3 0,-4 -3,-9 -5,-17 -5,-22 0,-8 0,-16 2,-28 0,-11 3,-26 9,-44l2 -3c3,-11 5,-19 5,-23 0,-3 -3,-7 -7,-10z"/>
  </g>
 </g>
</svg>
