<?xml version="1.0" standalone="no"?>
<!DOCTYPE svg PUBLIC "-//W3C//DTD SVG 20010904//EN"
 "http://www.w3.org/TR/2001/REC-SVG-20010904/DTD/svg10.dtd">
<svg version="1.0" xmlns="http://www.w3.org/2000/svg"
 width="520.000000pt" height="520.000000pt" viewBox="0 0 520.000000 520.000000"
 preserveAspectRatio="xMidYMid meet">
<metadata>
Created by potrace 1.14, written by Peter Selinger 2001-2017
</metadata>
<g transform="translate(0.000000,520.000000) scale(0.100000,-0.100000)"
fill="#000000" stroke="none">
<path d="M2175 5156 c-49 -24 -130 -62 -180 -86 -186 -87 -214 -101 -219 -108
-2 -4 -7 -79 -11 -167 -3 -88 -8 -200 -10 -250 -4 -98 -17 -416 -20 -505 -1
-30 -3 -103 -5 -161 -1 -59 -5 -111 -9 -116 -3 -5 -86 -65 -183 -132 -136 -93
-178 -127 -179 -144 -1 -12 -2 -38 -4 -57 -13 -184 -17 -232 -20 -251 -3 -13
4 -36 14 -53 10 -17 33 -58 51 -91 18 -33 44 -78 56 -100 13 -22 29 -51 36
-65 7 -14 20 -37 29 -51 12 -17 16 -38 14 -65 -3 -21 -7 -66 -10 -99 -2 -33
-7 -76 -10 -95 -2 -19 -7 -57 -10 -85 -4 -27 -8 -57 -10 -65 -2 -8 -6 -42 -10
-75 -3 -33 -10 -87 -15 -120 -5 -33 -12 -87 -16 -120 -3 -33 -8 -67 -9 -75 -2
-9 -6 -43 -10 -75 -4 -33 -9 -68 -11 -77 -1 -9 -6 -48 -9 -85 -4 -37 -9 -70
-10 -73 -2 -3 -6 -34 -10 -69 -4 -34 -8 -70 -10 -79 -1 -9 -6 -42 -10 -72 -3
-30 -8 -66 -10 -80 -2 -14 -7 -50 -10 -80 -3 -30 -8 -66 -10 -80 -4 -29 -14
-99 -20 -152 -13 -100 -16 -125 -20 -148 -2 -14 -7 -50 -10 -80 -5 -51 -21
-171 -30 -230 -2 -14 -7 -50 -10 -80 -3 -30 -8 -62 -10 -70 -6 -23 -18 -140
-19 -190 -1 -43 0 -45 29 -46 17 -1 50 -5 75 -8 67 -10 198 -26 258 -32 29 -3
61 -7 70 -9 9 -2 25 -4 35 -4 14 -1 17 -10 17 -51 l0 -50 113 0 c61 -1 187 -2
278 -3 l166 -2 -1 48 c-1 26 1 48 4 48 31 7 120 4 120 -5 0 -8 2 -8 8 0 8 13
160 13 181 0 9 -6 12 -5 8 1 -8 13 136 13 145 -1 5 -8 8 -7 8 2 0 16 62 16 79
0 11 -11 12 -10 6 2 -8 13 -6 13 7 2 9 -7 14 -21 11 -32 -4 -16 8 -26 73 -56
96 -45 85 -40 111 -49 13 -4 21 -10 18 -14 -5 -9 22 -7 55 4 14 4 61 26 105
48 l80 41 140 3 c77 1 143 3 148 3 4 0 13 11 19 25 10 23 30 35 68 41 17 3 80
16 95 20 6 1 21 4 35 7 43 8 110 28 110 32 0 2 -6 10 -13 17 -7 7 -51 63 -97
123 -46 61 -109 144 -141 185 l-58 76 -6 149 c-3 83 -7 209 -10 280 -3 72 -7
198 -11 280 -3 83 -7 193 -9 245 -10 300 -17 465 -21 471 -2 4 35 54 83 111
99 117 350 406 370 426 7 7 13 18 13 23 0 5 -74 121 -165 258 -184 278 -164
228 -180 446 -3 39 -8 97 -11 130 -3 33 -7 71 -8 85 -2 14 -4 28 -4 31 -1 4
-45 32 -97 63 -82 49 -95 61 -96 84 0 15 -2 52 -3 82 -2 30 -7 120 -10 200 -4
80 -9 156 -12 170 -6 38 -7 256 -1 266 3 5 8 47 12 94 4 47 8 87 10 90 4 7 19
158 19 199 1 33 -5 39 -129 128 -71 52 -141 101 -155 111 -14 9 -55 38 -91 64
l-67 48 -373 -1 -374 0 -90 -43z"/>
<path d="M1270 196 c7 -7 13 -7 20 0 6 6 3 10 -10 10 -13 0 -16 -4 -10 -10z"/>
<path d="M1593 125 c0 -8 4 -12 9 -9 5 3 6 10 3 15 -9 13 -12 11 -12 -6z"/>
<path d="M2790 36 c7 -7 13 -7 20 0 6 6 3 10 -10 10 -13 0 -16 -4 -10 -10z"/>
</g>
</svg>
